<svg width="35" height="35" viewBox="0 0 35 35" fill="none" xmlns="http://www.w3.org/2000/svg">
<path d="M35 0H0V35H35V0Z" fill="#1BA8FF"/>
<path d="M20.7738 9.57332V9.56982H21.6865L22.02 9.63668C22.2423 9.68013 22.4442 9.73705 22.6255 9.80746C22.8069 9.87788 22.9824 9.96002 23.1521 10.0539C23.3218 10.1478 23.4756 10.2434 23.6137 10.3409C23.7506 10.4371 23.8735 10.5392 23.9823 10.6472C24.0899 10.7563 24.2579 10.7844 24.486 10.7316C24.7142 10.6788 24.9599 10.6055 25.2233 10.5116C25.4865 10.4177 25.7469 10.3121 26.0043 10.1947C26.2618 10.0774 26.4186 10.0028 26.4747 9.97119C26.5297 9.9383 26.559 9.9207 26.5625 9.91838L26.566 9.91308L26.5835 9.90428L26.6011 9.89548L26.6186 9.88668L26.6362 9.87788L26.6397 9.87257L26.645 9.86907L26.6502 9.86552L26.6537 9.86027L26.6713 9.85497L26.6888 9.85147L26.6854 9.87788L26.6801 9.90428L26.6713 9.93068L26.6625 9.95709L26.6537 9.97469L26.645 9.9923L26.6362 10.0187C26.6304 10.0363 26.6245 10.0598 26.6186 10.0891C26.6128 10.1184 26.5572 10.2358 26.4519 10.4412C26.3466 10.6465 26.2149 10.8548 26.057 11.0661C25.899 11.2774 25.7574 11.4369 25.6322 11.5449C25.5058 11.6541 25.4222 11.7304 25.3812 11.7737C25.3403 11.8184 25.2905 11.8594 25.232 11.897L25.1443 11.9551L25.1267 11.9639L25.1092 11.9727L25.1057 11.978L25.1004 11.9815L25.0951 11.985L25.0916 11.9903L25.074 11.9991L25.0565 12.0079L25.053 12.0132L25.0477 12.0167L25.0424 12.0202L25.0389 12.0255L25.0354 12.0308L25.0302 12.0343L25.0249 12.0378L25.0214 12.0431H25.1092L25.6006 11.9375C25.9283 11.8671 26.2413 11.782 26.5397 11.6822L27.0136 11.5238L27.0662 11.5062L27.0926 11.4974L27.1101 11.4886L27.1277 11.4798L27.1452 11.471L27.1628 11.4622L27.1979 11.4569L27.233 11.4534V11.4886L27.2242 11.4921L27.2154 11.4974L27.2119 11.5026L27.2066 11.5062L27.2014 11.5097L27.1979 11.515L27.1944 11.5203L27.1891 11.5238L27.1838 11.5273L27.1803 11.5326L27.1768 11.5379L27.1715 11.5414L27.1628 11.559L27.154 11.5766L27.1487 11.5801C27.1464 11.5837 27.0721 11.6834 26.9258 11.8794C26.7795 12.0765 26.7006 12.1763 26.6888 12.1787C26.6772 12.1822 26.6608 12.1998 26.6397 12.2315C26.6198 12.2643 26.4958 12.3951 26.2676 12.624C26.0394 12.8528 25.8159 13.0564 25.5971 13.2348C25.3772 13.4144 25.266 13.635 25.2636 13.8968C25.2601 14.1572 25.2467 14.4519 25.2233 14.7804C25.1998 15.109 25.156 15.464 25.0916 15.8454C25.0273 16.2268 24.9278 16.6581 24.7932 17.1393C24.6587 17.6204 24.4948 18.0899 24.3017 18.5476C24.1087 19.0053 23.9069 19.416 23.6962 19.7798C23.4856 20.1436 23.2925 20.4517 23.117 20.704C22.9415 20.9563 22.763 21.1939 22.5816 21.4169C22.4003 21.6399 22.171 21.8911 21.8936 22.1703C21.6151 22.4485 21.463 22.601 21.4372 22.628C21.4104 22.6539 21.2957 22.7501 21.0932 22.9167C20.892 23.0846 20.6755 23.2524 20.4438 23.4202C20.2133 23.5869 20.0015 23.7259 19.8084 23.8374C19.6153 23.9489 19.3825 24.0762 19.1098 24.2194C18.8383 24.3637 18.5446 24.4975 18.2287 24.6208C17.9127 24.744 17.5793 24.8584 17.2282 24.964C16.8772 25.0696 16.5379 25.1518 16.2102 25.2105C15.8826 25.2691 15.511 25.319 15.0957 25.3601L14.4725 25.4217V25.4305H13.3317V25.4217L13.1824 25.4129C13.083 25.407 13.0011 25.4011 12.9367 25.3953C12.8724 25.3894 12.6295 25.3571 12.2083 25.2985C11.787 25.2398 11.4565 25.1811 11.2166 25.1224C10.9767 25.0638 10.6198 24.9523 10.1459 24.788C9.67199 24.6237 9.26656 24.4576 8.92953 24.2898C8.59373 24.1231 8.38312 24.0175 8.29767 23.9729C8.21342 23.9295 8.11861 23.8755 8.0133 23.811L7.85534 23.7141L7.85184 23.7089L7.84659 23.7053L7.84128 23.7018L7.83778 23.6965L7.82023 23.6877L7.80268 23.6789L7.79918 23.6737L7.79393 23.6701L7.78863 23.6666L7.78513 23.6613L7.78163 23.6561L7.77638 23.6525H7.76758V23.6173L7.78513 23.6209L7.80268 23.6261L7.88169 23.6349C7.93434 23.6408 8.07769 23.6496 8.31173 23.6613C8.54576 23.6731 8.79442 23.6731 9.05769 23.6613C9.32096 23.6496 9.5901 23.6232 9.86506 23.5821C10.1401 23.5411 10.4648 23.4706 10.8392 23.3709C11.2137 23.2711 11.5577 23.1526 11.8713 23.0153C12.1838 22.8768 12.4061 22.7736 12.5383 22.7055C12.6693 22.6386 12.8694 22.5142 13.1386 22.3323L13.5423 22.0594L13.5458 22.0542L13.551 22.0506L13.5563 22.0471L13.5598 22.0418L13.5633 22.0366L13.5686 22.033L13.5739 22.0295L13.5774 22.0242L13.5949 22.019L13.6125 22.0154L13.616 21.9978L13.6212 21.9802L13.6265 21.9767L13.63 21.9714L13.4896 21.9626C13.396 21.9567 13.3053 21.9509 13.2175 21.945C13.1298 21.9391 12.9923 21.9127 12.8051 21.8658C12.6179 21.8188 12.416 21.7484 12.1995 21.6546C11.9831 21.5607 11.7724 21.4492 11.5677 21.3201C11.3629 21.191 11.2148 21.0836 11.1236 20.9979C11.0335 20.9134 10.9164 20.7938 10.7725 20.6388C10.6298 20.4828 10.5057 20.3225 10.4004 20.1583C10.2951 19.994 10.1945 19.8044 10.0985 19.5897L9.95281 19.2693L9.94406 19.2429L9.93526 19.2165L9.93001 19.1989L9.92651 19.1813L9.95281 19.1848L9.97917 19.1901L10.1722 19.2165C10.301 19.2341 10.5028 19.24 10.7778 19.2341C11.0528 19.2282 11.2429 19.2165 11.3482 19.1989C11.4535 19.1813 11.5179 19.1696 11.5413 19.1637L11.5764 19.1549L11.6203 19.1461L11.6642 19.1373L11.6677 19.132L11.673 19.1285L11.6782 19.1249L11.6817 19.1197L11.6466 19.1109L11.6115 19.1021L11.5764 19.0933L11.5413 19.0845L11.5062 19.0757C11.4828 19.0698 11.4419 19.0581 11.3833 19.0405C11.3249 19.0229 11.1669 18.9583 10.9094 18.8468C10.652 18.7353 10.4472 18.6268 10.2951 18.5212C10.1426 18.4153 9.99718 18.2994 9.85981 18.1744C9.72289 18.0476 9.57255 17.8845 9.40872 17.685C9.24489 17.4855 9.09866 17.2537 8.96993 16.9897C8.8412 16.7256 8.74464 16.4733 8.68031 16.2327C8.61617 15.9936 8.57392 15.749 8.55395 15.5022L8.52234 15.1325L8.53989 15.136L8.55745 15.1413L8.575 15.1501L8.59255 15.1589L8.6101 15.1677L8.62765 15.1765L8.89972 15.2997C9.08111 15.3819 9.30634 15.4523 9.57548 15.511C9.84462 15.5696 10.0055 15.6019 10.0582 15.6078L10.1371 15.6166H10.2951L10.2916 15.6113L10.2863 15.6078L10.281 15.6043L10.2775 15.599L10.274 15.5937L10.2688 15.5902L10.2635 15.5867L10.26 15.5814L10.2424 15.5726L10.2249 15.5638L10.2214 15.5585L10.2161 15.555L10.2108 15.5515L10.2073 15.5462L10.1898 15.5374L10.1722 15.5286L10.1687 15.5233C10.1652 15.5209 10.1149 15.4834 10.0178 15.4106C9.92183 15.3367 9.8212 15.2411 9.71589 15.1237C9.61059 15.0064 9.50528 14.8831 9.39997 14.754C9.29445 14.6246 9.20047 14.4862 9.11909 14.3403C9.0372 14.1936 8.95063 14.0071 8.85932 13.7805C8.76925 13.5552 8.70079 13.3282 8.65395 13.0993C8.60717 12.8704 8.58086 12.6445 8.575 12.4216C8.56913 12.1986 8.575 12.0079 8.59255 11.8495C8.6101 11.691 8.6452 11.5121 8.69786 11.3126C8.75051 11.1131 8.82659 10.9018 8.92603 10.6788L9.07524 10.3444L9.08399 10.3179L9.09279 10.2915L9.09804 10.288L9.10154 10.2827L9.10504 10.2775L9.11034 10.2739L9.11559 10.2775L9.11909 10.2827L9.12259 10.288L9.12789 10.2915L9.13314 10.2951L9.13664 10.3003L9.1402 10.3056L9.14545 10.3091L9.1542 10.3268L9.163 10.3444L9.16825 10.3479L9.17175 10.3532L9.40872 10.6172C9.56668 10.7932 9.75393 10.9898 9.97037 11.2069C10.1869 11.4241 10.3068 11.5367 10.3302 11.5449C10.3536 11.5543 10.3829 11.5813 10.418 11.6259C10.4531 11.6693 10.5701 11.7732 10.769 11.9375C10.968 12.1018 11.2283 12.2925 11.5501 12.5096C11.8719 12.7267 12.2288 12.9409 12.6208 13.1521C13.0128 13.3634 13.434 13.5541 13.8845 13.7242C14.335 13.8944 14.651 14.0059 14.8323 14.0587C15.0137 14.1115 15.3238 14.179 15.7626 14.2611C16.2014 14.3433 16.532 14.3961 16.7543 14.4195C16.9766 14.443 17.1288 14.4565 17.2107 14.46L17.3335 14.4635L17.33 14.4371L17.3247 14.4107L17.2896 14.1907C17.2663 14.044 17.2545 13.8386 17.2545 13.5746C17.2545 13.3106 17.275 13.067 17.316 12.844C17.357 12.6211 17.4184 12.3951 17.5003 12.1663C17.5822 11.9375 17.6623 11.7538 17.7407 11.6153C17.8204 11.478 17.9245 11.3214 18.0532 11.1453C18.1819 10.9693 18.3486 10.7874 18.5534 10.5996C18.7582 10.4118 18.9922 10.2446 19.2555 10.0979C19.5188 9.95122 19.7616 9.83974 19.9839 9.76346C20.2063 9.68718 20.3935 9.6373 20.5456 9.61383C20.6977 9.59036 20.7738 9.57688 20.7738 9.57332Z" fill="white"/>
</svg>
