<svg width="35" height="35" viewBox="0 0 35 35" fill="none" xmlns="http://www.w3.org/2000/svg">
<path d="M0 0H35V35H0V0Z" fill="#018AD2"/>
<path d="M9.19922 11.4311C9.19922 10.8987 9.38621 10.4595 9.76009 10.1135C10.134 9.76753 10.6201 9.59448 11.2183 9.59448C11.8059 9.59448 12.2813 9.76485 12.6445 10.1055C13.0184 10.4569 13.2053 10.9147 13.2053 11.479C13.2053 11.9901 13.0237 12.4159 12.6605 12.7566C12.2866 13.108 11.7952 13.2837 11.1863 13.2837H11.1702C10.5827 13.2837 10.1073 13.108 9.74409 12.7566C9.38086 12.4053 9.19922 11.9634 9.19922 11.4311ZM9.40757 25.4052V14.737H12.965V25.4052H9.40757ZM14.936 25.4052H18.4934V19.4483C18.4934 19.0756 18.5361 18.7881 18.6216 18.5858C18.7712 18.2238 18.9981 17.9177 19.3026 17.6675C19.6071 17.4173 19.989 17.2922 20.4484 17.2922C21.6449 17.2922 22.2431 18.0961 22.2431 19.7038V25.4052H25.8005V19.2886C25.8005 17.7128 25.4266 16.5177 24.6788 15.7032C23.931 14.8887 22.9428 14.4815 21.7143 14.4815C20.3362 14.4815 19.2625 15.0723 18.4934 16.2542V16.2861H18.4774L18.4934 16.2542V14.737H14.936C14.9573 15.0777 14.968 16.1371 14.968 17.9151C14.968 19.6931 14.9573 22.1899 14.936 25.4052Z" fill="white"/>
</svg>
