<svg width="35" height="35" viewBox="0 0 35 35" fill="none" xmlns="http://www.w3.org/2000/svg">
<path d="M35 0H0V35H35V0Z" fill="url(#paint0_radial_206_704)"/>
<path d="M14.2906 17.4998C14.2906 15.7273 15.7271 14.29 17.4996 14.29C19.2721 14.29 20.7094 15.7273 20.7094 17.4998C20.7094 19.2723 19.2721 20.7095 17.4996 20.7095C15.7271 20.7095 14.2906 19.2723 14.2906 17.4998ZM12.5555 17.4998C12.5555 20.2304 14.769 22.4439 17.4996 22.4439C20.2302 22.4439 22.4437 20.2304 22.4437 17.4998C22.4437 14.7692 20.2302 12.5557 17.4996 12.5557C14.769 12.5557 12.5555 14.769 12.5555 17.4998H12.5555ZM21.4841 12.3597C21.484 12.5882 21.5517 12.8116 21.6785 13.0017C21.8054 13.1917 21.9858 13.3399 22.1969 13.4274C22.408 13.5149 22.6403 13.5379 22.8645 13.4934C23.0886 13.4489 23.2945 13.339 23.4562 13.1774C23.6178 13.0159 23.7279 12.8101 23.7726 12.586C23.8173 12.3619 23.7945 12.1296 23.7072 11.9184C23.6198 11.7072 23.4717 11.5267 23.2818 11.3997C23.0918 11.2726 22.8685 11.2048 22.64 11.2047H22.6395C22.3332 11.2048 22.0395 11.3266 21.8228 11.5431C21.6062 11.7596 21.4843 12.0533 21.4841 12.3597ZM13.6097 25.3372C12.6709 25.2944 12.1607 25.1381 11.8216 25.006C11.3721 24.831 11.0514 24.6225 10.7141 24.2858C10.3769 23.949 10.1682 23.6286 9.99395 23.1791C9.86177 22.8401 9.7054 22.3297 9.66268 21.391C9.61605 20.3761 9.60668 20.0712 9.60668 17.4999C9.60668 14.9287 9.61682 14.6246 9.66268 13.6089C9.70545 12.6701 9.86295 12.1607 9.99395 11.8208C10.1689 11.3713 10.3774 11.0506 10.7141 10.7133C11.0509 10.3761 11.3714 10.1674 11.8216 9.99311C12.1606 9.86093 12.6709 9.70457 13.6097 9.6619C14.6246 9.61521 14.9295 9.6059 17.4996 9.6059C20.0697 9.6059 20.3749 9.61583 21.3907 9.66205C22.3294 9.70482 22.8387 9.86232 23.1787 9.99326C23.6282 10.1675 23.949 10.3767 24.2862 10.7135C24.6234 11.0503 24.8314 11.3714 25.0064 11.821C25.1386 12.1599 25.295 12.6703 25.3376 13.609C25.3843 14.6248 25.3936 14.9288 25.3936 17.5001C25.3936 20.0714 25.3843 20.3754 25.3376 21.3912C25.2949 22.3299 25.1377 22.8401 25.0064 23.1792C24.8314 23.6288 24.623 23.9495 24.2862 24.2859C23.9494 24.6224 23.6282 24.8312 23.1787 25.0062C22.8398 25.1383 22.3294 25.2947 21.3907 25.3374C20.3757 25.3841 20.0709 25.3934 17.4996 25.3934C14.9283 25.3934 14.6243 25.3841 13.6097 25.3374V25.3372ZM13.53 7.92965C12.5049 7.97629 11.8045 8.13883 11.1929 8.37683C10.5598 8.62265 10.0231 8.95243 9.48722 9.48746C8.95136 10.0225 8.62246 10.5592 8.37664 11.193C8.13864 11.8051 7.97609 12.5051 7.92941 13.5302C7.88195 14.5568 7.87109 14.885 7.87109 17.4998C7.87109 20.1146 7.88195 20.4428 7.92941 21.4694C7.97609 22.4945 8.13864 23.1944 8.37664 23.8065C8.62246 24.4396 8.95141 24.9773 9.48722 25.5122C10.023 26.0469 10.559 26.3763 11.1929 26.6227C11.8057 26.8607 12.5049 27.0233 13.53 27.07C14.5571 27.1166 14.8848 27.1282 17.4996 27.1282C20.1144 27.1282 20.4426 27.1174 21.4692 27.07C22.4943 27.0233 23.1942 26.8607 23.8063 26.6227C24.4394 26.3763 24.9761 26.0471 25.5119 25.5122C26.0478 24.9771 26.3761 24.4396 26.6225 23.8065C26.8605 23.1944 27.0238 22.4944 27.0697 21.4694C27.1164 20.442 27.1273 20.1146 27.1273 17.4998C27.1273 14.885 27.1164 14.5568 27.0697 13.5302C27.023 12.5051 26.8605 11.8047 26.6225 11.193C26.3761 10.56 26.047 10.0233 25.5119 9.48746C24.9769 8.95155 24.4394 8.62265 23.8071 8.37683C23.1942 8.13883 22.4942 7.97557 21.47 7.92965C20.4432 7.88271 20.1151 7.87134 17.5007 7.87134C14.8863 7.87134 14.5575 7.8822 13.5303 7.92965" fill="white"/>
<defs>
<radialGradient id="paint0_radial_206_704" cx="0" cy="0" r="1" gradientUnits="userSpaceOnUse" gradientTransform="translate(2.26516 34.2332) scale(44.437)">
<stop offset="0.09" stop-color="#FF881B"/>
<stop offset="0.78" stop-color="#EE2584"/>
</radialGradient>
</defs>
</svg>
