<svg width="21" height="21" viewBox="0 0 21 21" fill="none" xmlns="http://www.w3.org/2000/svg">
<path d="M7.29061 10.5C7.29061 8.72754 8.7271 7.29027 10.4996 7.29027C12.2721 7.29027 13.7094 8.72754 13.7094 10.5C13.7094 12.2725 12.2721 13.7098 10.4996 13.7098C8.7271 13.7098 7.29061 12.2725 7.29061 10.5ZM5.55548 10.5C5.55548 13.2306 7.76898 15.4441 10.4996 15.4441C13.2302 15.4441 15.4437 13.2306 15.4437 10.5C15.4437 7.76941 13.2302 5.55592 10.4996 5.55592C7.76898 5.55592 5.55554 7.76926 5.55554 10.5H5.55548ZM14.4841 5.35992C14.484 5.5884 14.5517 5.81183 14.6785 6.00191C14.8054 6.19194 14.9858 6.34013 15.1969 6.42763C15.408 6.51518 15.6403 6.53813 15.8645 6.49366C16.0886 6.44919 16.2945 6.3392 16.4562 6.17768C16.6178 6.01617 16.7279 5.81034 16.7726 5.58624C16.8173 5.36213 16.7945 5.1298 16.7072 4.91861C16.6198 4.70748 16.4717 4.52697 16.2818 4.39994C16.0918 4.27286 15.8685 4.20502 15.64 4.20492H15.6395C15.3332 4.20507 15.0395 4.3268 14.8228 4.54334C14.6062 4.75988 14.4843 5.05357 14.4841 5.35992ZM6.6097 18.3375C5.67093 18.2947 5.1607 18.1383 4.82162 18.0062C4.37212 17.8312 4.05136 17.6228 3.71412 17.286C3.37689 16.9492 3.16818 16.6288 2.99395 16.1793C2.86177 15.8404 2.7054 15.33 2.66268 14.3913C2.61605 13.3763 2.60668 13.0715 2.60668 10.5002C2.60668 7.92892 2.61682 7.62488 2.66268 6.60911C2.70545 5.67039 2.86295 5.16099 2.99395 4.82107C3.16895 4.37153 3.37735 4.05082 3.71412 3.71358C4.0509 3.37635 4.37135 3.16763 4.82162 2.99335C5.16055 2.86118 5.67093 2.70481 6.6097 2.66214C7.6246 2.61546 7.92946 2.60614 10.4996 2.60614C13.0697 2.60614 13.3749 2.61607 14.3907 2.6623C15.3294 2.70507 15.8387 2.86257 16.1787 2.99351C16.6282 3.16779 16.949 3.37696 17.2862 3.71374C17.6234 4.05051 17.8314 4.37169 18.0064 4.82123C18.1386 5.16016 18.295 5.67055 18.3376 6.60927C18.3843 7.62504 18.3936 7.92908 18.3936 10.5003C18.3936 13.0716 18.3843 13.3756 18.3376 14.3914C18.2949 15.3301 18.1377 15.8404 18.0064 16.1795C17.8314 16.629 17.623 16.9497 17.2862 17.2862C16.9494 17.6226 16.6282 17.8314 16.1787 18.0064C15.8398 18.1386 15.3294 18.2949 14.3907 18.3376C13.3757 18.3843 13.0709 18.3936 10.4996 18.3936C7.92833 18.3936 7.62429 18.3843 6.6097 18.3376V18.3375ZM6.52998 0.929898C5.50494 0.97653 4.80453 1.13907 4.19285 1.37707C3.55976 1.6229 3.02313 1.95267 2.48722 2.48771C1.95136 3.02274 1.62246 3.55943 1.37664 4.19329C1.13864 4.80538 0.976094 5.50538 0.92941 6.53041C0.881954 7.55705 0.871094 7.88527 0.871094 10.5C0.871094 13.1148 0.881954 13.443 0.92941 14.4696C0.976094 15.4947 1.13864 16.1947 1.37664 16.8068C1.62246 17.4399 1.95141 17.9776 2.48722 18.5124C3.02303 19.0472 3.55899 19.3765 4.19285 19.623C4.80571 19.861 5.50494 20.0235 6.52998 20.0702C7.55712 20.1168 7.88479 20.1285 10.4996 20.1285C13.1144 20.1285 13.4426 20.1176 14.4692 20.0702C15.4943 20.0235 16.1942 19.861 16.8063 19.623C17.4394 19.3765 17.9761 19.0474 18.5119 18.5124C19.0478 17.9774 19.3761 17.4399 19.6225 16.8068C19.8605 16.1947 20.0238 15.4947 20.0697 14.4696C20.1164 13.4422 20.1273 13.1148 20.1273 10.5C20.1273 7.88527 20.1164 7.55705 20.0697 6.53041C20.023 5.50532 19.8605 4.80496 19.6225 4.19329C19.3761 3.5602 19.047 3.02357 18.5119 2.48771C17.9769 1.95179 17.4394 1.6229 16.8071 1.37707C16.1942 1.13907 15.4942 0.97581 14.47 0.929898C13.4432 0.882957 13.1151 0.871582 10.5007 0.871582C7.88633 0.871582 7.55754 0.882442 6.53034 0.929898" fill="white"/>
</svg>
