<svg width="17" height="17" viewBox="0 0 17 17" fill="none" xmlns="http://www.w3.org/2000/svg">
<path d="M0.199219 2.43086C0.199219 1.8985 0.386212 1.4593 0.760094 1.11327C1.13398 0.767282 1.62006 0.594238 2.21831 0.594238C2.8059 0.594238 3.28128 0.764605 3.64451 1.10529C4.01839 1.45668 4.20533 1.91446 4.20533 2.47878C4.20533 2.98983 4.02374 3.4157 3.66051 3.75639C3.28663 4.10772 2.79519 4.28344 2.18629 4.28344H2.17023C1.5827 4.28344 1.10731 4.10772 0.744087 3.75639C0.380859 3.40505 0.199219 2.96317 0.199219 2.43086ZM0.407572 16.405V5.73672H3.96496V16.405H0.407572ZM5.93598 16.405H9.49336V10.448C9.49336 10.0754 9.53614 9.78786 9.62158 9.58558C9.77115 9.22359 9.99814 8.9175 10.3026 8.6673C10.6071 8.4171 10.989 8.29197 11.4484 8.29197C12.6449 8.29197 13.2431 9.09584 13.2431 10.7035V16.405H16.8005V10.2883C16.8005 8.71254 16.4266 7.51744 15.6788 6.70292C14.931 5.88845 13.9428 5.48122 12.7143 5.48122C11.3362 5.48122 10.2625 6.0721 9.49336 7.25391V7.28588H9.47736L9.49336 7.25391V5.73672H5.93598C5.95734 6.07745 5.96804 7.13682 5.96804 8.91487C5.96804 10.6929 5.95734 13.1896 5.93598 16.405Z" fill="white"/>
</svg>
